# xmcd
#
# Track frame offsets:
#	150
#	8908
#	27084
#	45816
#	63672
#	80498
#	95718
#	112291
#	130737
#	148311
#	164952
#	186955
#
# Disc length: 2763 seconds
#
# Revision: 0
# Processed by: cddbd v1.5.2PL0 Copyright (c) Steve Scherf et al.
# Submitted via: audiograbber 1.83.01
#
DISCID=ae0ac90c
DTITLE=Butch Walker - Left Of Self-Centered
DYEAR=2002
DGENRE=Pop Rock
TTITLE0=Rock Vocal Power
TTITLE1=My Way
TTITLE2=Suburbia
TTITLE3=Trouble
TTITLE4=Alicia Amnesia
TTITLE5=Sober
TTITLE6=Into The Black
TTITLE7=Get Down
TTITLE8=Far Away From Close
TTITLE9=Diary Of A San Fernando Sexx Star
TTITLE10=If (Jeannie's Song)
TTITLE11=Take Tomorrow (One Day At A Time)
EXTD=
EXTT0=
EXTT1=
EXTT2=
EXTT3=
EXTT4=
EXTT5=
EXTT6=
EXTT7=
EXTT8=
EXTT9=
EXTT10=
EXTT11=
PLAYORDER=
